<svg xmlns="http://www.w3.org/2000/svg" version="1.1" xmlns:xlink="http://www.w3.org/1999/xlink" xmlns:svgjs="http://svgjs.dev/svgjs" width="1500" height="1500" viewBox="0 0 1500 1500"><rect width="1500" height="1500" fill="#ffffff"></rect><g transform="matrix(0.6666666666666666,0,0,0.6666666666666666,250.16994382022466,633.2756184738956)"><svg viewBox="0 0 356 83" data-background-color="#ffffff" preserveAspectRatio="xMidYMid meet" height="349" width="1500" xmlns="http://www.w3.org/2000/svg" xmlns:xlink="http://www.w3.org/1999/xlink"><g id="tight-bounds" transform="matrix(1,0,0,1,-0.06049999999996203,0.13949999999999818)"><svg viewBox="0 0 356.12052 82.72059100514494" height="82.72059100514494" width="356.12052"><g><svg viewBox="0 0 356.12052 82.72059100514494" height="82.72059100514494" width="356.12052"><g><svg viewBox="0 0 356.12052 82.72059100514494" height="82.72059100514494" width="356.12052"><g><path d="M0 82.721v-82.721h356.121v82.721z" fill="#000000" stroke="transparent" stroke-width="0" rx="0%" data-fill-palette-color="tertiary"></path><path d="M3.283 79.437v-76.154h349.554v76.154z" fill="#ffffff" stroke="transparent" stroke-width="0" rx="0%" data-fill-palette-color="quaternary"></path><path d="M9.85 72.871v-63.021h336.421v63.021z" fill="#000000" stroke="transparent" stroke-width="0" data-fill-palette-color="tertiary"></path></g><g transform="matrix(1,0,0,1,19.69974,19.69974)" id="textblocktransform"><svg viewBox="0 0 316.72104 43.32111100514494" height="43.32111100514494" width="316.72104" id="textblock"><g><svg viewBox="0 0 316.72104 43.32111100514494" height="43.32111100514494" width="316.72104"><g transform="matrix(1,0,0,1,0,0)"><svg width="316.72104" viewBox="2.25 -41.5 398.42 54.5" height="43.32111100514494" data-palette-color="#ffffff"><path d="M35.3-9.85L34.55 0 2.25 0 2.25-1.9Q4-1.95 5.08-2.2 6.15-2.45 6.75-3.05 7.35-3.65 7.55-4.75 7.75-5.85 7.75-7.6L7.75-7.6 7.75-30.9Q7.75-32.65 7.58-33.73 7.4-34.8 6.88-35.43 6.35-36.05 5.35-36.27 4.35-36.5 2.75-36.6L2.75-36.6 2.75-38.5 17.95-38.5 17.95-36.6Q16.35-36.55 15.38-36.3 14.4-36.05 13.88-35.4 13.35-34.75 13.18-33.6 13-32.45 13-30.55L13-30.55 13-9Q13-6.9 13.43-5.58 13.85-4.25 14.88-3.53 15.9-2.8 17.6-2.53 19.3-2.25 21.9-2.25L21.9-2.25Q24.75-2.25 26.7-2.58 28.65-2.9 29.98-3.73 31.3-4.55 32.08-6.03 32.85-7.5 33.4-9.85L33.4-9.85 35.3-9.85ZM59.5-13.6L59.5-18.5Q59.5-20.55 59.4-21.73 59.3-22.9 58.87-23.53 58.45-24.15 57.62-24.38 56.8-24.6 55.35-24.75L55.35-24.75 55.35-26.5 64.4-26.5 64.4-11.15Q64.4-8.3 64.47-6.5 64.55-4.7 64.7-3.8L64.7-3.8Q64.8-3.15 65.02-2.78 65.25-2.4 65.7-2.18 66.15-1.95 66.87-1.88 67.6-1.8 68.75-1.8L68.75-1.8 68.75-0.05 60.5 0.55 59.95-5.45 59.75-5.45Q57.85-2.35 55.37-0.93 52.9 0.5 50.2 0.5L50.2 0.5Q48.1 0.5 46.12-0.3 44.15-1.1 43.15-2.45L43.15-2.45Q42.3-3.55 41.92-5.5 41.55-7.45 41.55-10.55L41.55-10.55 41.55-18.5Q41.55-20.55 41.45-21.73 41.35-22.9 40.92-23.53 40.5-24.15 39.67-24.38 38.85-24.6 37.4-24.75L37.4-24.75 37.4-26.5 46.45-26.5 46.45-12.85Q46.45-7.4 47.72-4.95 49-2.5 51.8-2.5L51.8-2.5Q56.2-2.5 58.65-8.25L58.65-8.25Q58.9-8.85 59.05-9.35 59.2-9.85 59.3-10.45 59.4-11.05 59.45-11.8 59.5-12.55 59.5-13.6L59.5-13.6ZM86.05-16.2L89.44-20.6Q90.64-22.1 90.64-23.15L90.64-23.15Q90.64-24.75 87.69-24.75L87.69-24.75 87.69-26.5 98.64-26.5 98.64-24.75Q97.75-24.75 97.02-24.55 96.3-24.35 95.59-23.9 94.89-23.45 94.17-22.68 93.44-21.9 92.55-20.75L92.55-20.75 87.39-14.2 94.05-5.45Q95.59-3.4 96.92-2.58 98.25-1.75 99.75-1.75L99.75-1.75 99.75 0 86.44 0 86.44-1.75Q88.25-1.75 88.94-2.02 89.64-2.3 89.64-3.1L89.64-3.1Q89.64-3.45 89.22-4.13 88.8-4.8 87.8-6.1L87.8-6.1 84.3-10.6 80.05-5.2Q79.3-4.3 79.3-3.4L79.3-3.4Q79.3-2.7 79.89-2.23 80.5-1.75 81.8-1.75L81.8-1.75 81.8 0 70.34 0 70.34-1.75Q71.5-1.75 72.39-1.95 73.3-2.15 74.12-2.65 74.94-3.15 75.82-4.05 76.69-4.95 77.8-6.3L77.8-6.3 82.89-12.55 76.25-22Q75.09-23.6 74.14-24.18 73.19-24.75 71.75-24.75L71.75-24.75 71.75-26.5 84.05-26.5 84.05-24.75Q82.69-24.75 82.09-24.43 81.5-24.1 81.5-23.55L81.5-23.55Q81.5-22.8 82.44-21.45L82.44-21.45 86.05-16.2ZM123.44-13.6L123.44-18.5Q123.44-20.55 123.34-21.73 123.24-22.9 122.82-23.53 122.39-24.15 121.57-24.38 120.74-24.6 119.29-24.75L119.29-24.75 119.29-26.5 128.34-26.5 128.34-11.15Q128.34-8.3 128.42-6.5 128.49-4.7 128.64-3.8L128.64-3.8Q128.74-3.15 128.97-2.78 129.19-2.4 129.64-2.18 130.09-1.95 130.82-1.88 131.54-1.8 132.69-1.8L132.69-1.8 132.69-0.05 124.44 0.55 123.89-5.45 123.69-5.45Q121.79-2.35 119.32-0.93 116.84 0.5 114.14 0.5L114.14 0.5Q112.04 0.5 110.07-0.3 108.09-1.1 107.09-2.45L107.09-2.45Q106.24-3.55 105.87-5.5 105.49-7.45 105.49-10.55L105.49-10.55 105.49-18.5Q105.49-20.55 105.39-21.73 105.29-22.9 104.87-23.53 104.44-24.15 103.62-24.38 102.79-24.6 101.34-24.75L101.34-24.75 101.34-26.5 110.39-26.5 110.39-12.85Q110.39-7.4 111.67-4.95 112.94-2.5 115.74-2.5L115.74-2.5Q120.14-2.5 122.59-8.25L122.59-8.25Q122.84-8.85 122.99-9.35 123.14-9.85 123.24-10.45 123.34-11.05 123.39-11.8 123.44-12.55 123.44-13.6L123.44-13.6ZM144.89-9.65L144.89-7.95Q144.89-5.9 144.99-4.7 145.09-3.5 145.52-2.88 145.94-2.25 146.74-2.05 147.54-1.85 148.99-1.75L148.99-1.75 148.99 0 135.69 0 135.69-1.75Q137.14-1.8 137.99-2.02 138.84-2.25 139.29-2.85 139.74-3.45 139.87-4.58 139.99-5.7 139.99-7.6L139.99-7.6 139.99-13.45Q139.99-16.85 139.92-18.75 139.84-20.65 139.42-21.55 138.99-22.45 138.09-22.63 137.19-22.8 135.59-22.8L135.59-22.8 135.59-24.55 144.34-26.45 145.04-20.25 145.24-20.25Q145.89-21.75 146.87-23 147.84-24.25 148.99-25.13 150.14-26 151.39-26.5 152.64-27 153.94-27L153.94-27Q155.54-27 156.47-26.23 157.39-25.45 157.39-24.15L157.39-24.15Q157.39-22.95 156.64-22.28 155.89-21.6 154.49-21.6L154.49-21.6Q153.69-21.6 153.14-21.8 152.59-22 152.17-22.23 151.74-22.45 151.37-22.65 150.99-22.85 150.54-22.85L150.54-22.85Q149.19-22.85 147.84-21.13 146.49-19.4 145.74-16.75L145.74-16.75Q145.34-15.3 145.12-13.48 144.89-11.65 144.89-9.65L144.89-9.65ZM182.59-16.4L171.69 7.85Q169.39 13 164.54 13L164.54 13Q161.39 13 161.39 10.65L161.39 10.65Q161.39 9.4 162.26 8.83 163.14 8.25 165.49 7.85L165.49 7.85Q166.54 7.7 167.29 7.43 168.04 7.15 168.64 6.73 169.24 6.3 169.71 5.65 170.19 5 170.64 4.05L170.64 4.05 172.39 0.55 162.79-20.3Q162.14-21.7 161.66-22.53 161.19-23.35 160.66-23.83 160.14-24.3 159.49-24.48 158.84-24.65 157.84-24.75L157.84-24.75 157.84-26.5 171.09-26.5 171.09-24.75Q167.74-24.75 167.74-23.1L167.74-23.1Q167.74-22.45 168.14-21.05 168.54-19.65 169.14-18.2L169.14-18.2 174.64-4.9 174.89-4.9 179.44-16.15Q180.09-17.8 180.51-18.85 180.94-19.9 181.16-20.58 181.39-21.25 181.46-21.7 181.54-22.15 181.54-22.55L181.54-22.55Q181.54-23.85 180.81-24.3 180.09-24.75 178.04-24.75L178.04-24.75 178.04-26.5 189.04-26.5 189.04-24.75Q188.09-24.75 187.44-24.5 186.79-24.25 186.11-23.38 185.44-22.5 184.61-20.85 183.79-19.2 182.59-16.4L182.59-16.4ZM237.73-9.85L236.98 0 204.68 0 204.68-1.9Q206.43-1.95 207.51-2.2 208.58-2.45 209.18-3.05 209.78-3.65 209.98-4.75 210.18-5.85 210.18-7.6L210.18-7.6 210.18-30.9Q210.18-32.65 210.01-33.73 209.83-34.8 209.31-35.43 208.78-36.05 207.78-36.27 206.78-36.5 205.18-36.6L205.18-36.6 205.18-38.5 220.38-38.5 220.38-36.6Q218.78-36.55 217.81-36.3 216.83-36.05 216.31-35.4 215.78-34.75 215.61-33.6 215.43-32.45 215.43-30.55L215.43-30.55 215.43-9Q215.43-6.9 215.86-5.58 216.28-4.25 217.31-3.53 218.33-2.8 220.03-2.53 221.73-2.25 224.33-2.25L224.33-2.25Q227.18-2.25 229.13-2.58 231.08-2.9 232.41-3.73 233.73-4.55 234.51-6.03 235.28-7.5 235.83-9.85L235.83-9.85 237.73-9.85ZM263.33-6.05L264.88-4.65Q260.63 0.5 254.33 0.5L254.33 0.5Q251.38 0.5 248.98-0.48 246.58-1.45 244.86-3.23 243.13-5 242.18-7.48 241.23-9.95 241.23-12.95L241.23-12.95Q241.23-16 242.23-18.6 243.23-21.2 245.06-23.05 246.88-24.9 249.41-25.95 251.93-27 254.93-27L254.93-27Q259.78-27 262.43-24.38 265.08-21.75 265.08-16.85L265.08-16.85Q265.08-16.15 264.81-16 264.53-15.85 263.53-15.85L263.53-15.85 247.08-15.85Q246.98-15.45 246.93-14.88 246.88-14.3 246.88-13.6L246.88-13.6Q246.88-11 247.51-8.88 248.13-6.75 249.31-5.25 250.48-3.75 252.11-2.93 253.73-2.1 255.73-2.1L255.73-2.1Q257.83-2.1 259.63-3.03 261.43-3.95 263.33-6.05L263.33-6.05ZM247.43-18.15L256.63-18.15Q257.63-18.15 258.23-18.2 258.83-18.25 259.13-18.4 259.43-18.55 259.53-18.82 259.63-19.1 259.63-19.55L259.63-19.55Q259.63-21.85 258.16-23.23 256.68-24.6 254.13-24.6L254.13-24.6Q248.73-24.6 247.43-18.15L247.43-18.15ZM284.88-10.85L284.88-14.8Q282.03-13.7 280.05-12.65 278.08-11.6 276.88-10.55 275.68-9.5 275.15-8.45 274.63-7.4 274.63-6.3L274.63-6.3Q274.63-4.65 275.73-3.6 276.83-2.55 278.63-2.55L278.63-2.55Q279.93-2.55 281.05-3.2 282.18-3.85 283.03-4.98 283.88-6.1 284.38-7.63 284.88-9.15 284.88-10.85L284.88-10.85ZM277.68-13.8L284.88-16.95 284.88-19Q284.88-25.1 279.68-25.1L279.68-25.1Q278.83-25.1 278.23-24.95 277.63-24.8 277.23-24.45 276.83-24.1 276.5-23.45 276.18-22.8 275.88-21.85L275.88-21.85Q275.33-20.4 274.8-19.93 274.28-19.45 273.28-19.45L273.28-19.45Q270.78-19.45 270.78-21.95L270.78-21.95Q270.78-24.35 273.33-25.68 275.88-27 280.58-27L280.58-27Q285.58-27 287.68-25.23 289.78-23.45 289.78-19.2L289.78-19.2 289.78-8Q289.78-2.3 292.03-2.3L292.03-2.3Q292.73-2.3 293.38-2.48 294.03-2.65 294.48-3.4L294.48-3.4 295.18-2.2Q294.58-1.05 292.98-0.28 291.38 0.5 289.63 0.5L289.63 0.5Q287.43 0.5 286.35-0.9 285.28-2.3 285.28-4.85L285.28-4.85 285.03-4.85Q283.73-2.4 281.43-0.98 279.13 0.45 276.33 0.45L276.33 0.45Q273.18 0.45 271.38-1.15 269.58-2.75 269.58-5.45L269.58-5.45Q269.58-6.65 270-7.75 270.43-8.85 271.38-9.85 272.33-10.85 273.88-11.83 275.43-12.8 277.68-13.8L277.68-13.8ZM300.13-23.35L297.13-23.35 297.13-25.2Q299.77-26.75 301.27-28.3 302.77-29.85 303.57-32L303.57-32 305.02-32 305.02-25.7 311.73-25.7 311.73-23.35 305.02-23.35 305.02-8.15Q305.02-6.4 305.2-5.2 305.38-4 305.77-3.28 306.18-2.55 306.82-2.25 307.48-1.95 308.48-1.95L308.48-1.95Q309.73-1.95 310.6-2.48 311.48-3 312.32-4.25L312.32-4.25 313.57-3.3Q312.88-1.45 311.15-0.48 309.43 0.5 306.88 0.5L306.88 0.5Q303.57 0.5 301.85-1.07 300.13-2.65 300.13-5.6L300.13-5.6 300.13-23.35ZM324.42-14.35L324.42-7.95Q324.42-5.9 324.52-4.7 324.62-3.5 325.05-2.88 325.47-2.25 326.27-2.05 327.07-1.85 328.52-1.75L328.52-1.75 328.52 0 315.22 0 315.22-1.75Q316.67-1.85 317.52-2.05 318.37-2.25 318.82-2.85 319.27-3.45 319.4-4.58 319.52-5.7 319.52-7.6L319.52-7.6 319.52-28.55Q319.52-31.5 319.45-33.25 319.37-35 319.17-35.9L319.17-35.9Q319.07-36.5 318.85-36.88 318.62-37.25 318.17-37.48 317.72-37.7 316.97-37.8 316.22-37.9 315.12-37.9L315.12-37.9 315.12-39.6 324.32-41.5 324.32-22.45 324.52-22.45Q325.27-23.45 326.4-24.28 327.52-25.1 328.82-25.7 330.12-26.3 331.55-26.65 332.97-27 334.32-27L334.32-27Q336.62-27 338.55-26.2 340.47-25.4 341.52-24.05L341.52-24.05Q342.37-22.9 342.77-21.03 343.17-19.15 343.17-15.95L343.17-15.95 343.17-7.95Q343.17-5.9 343.27-4.73 343.37-3.55 343.8-2.9 344.22-2.25 345.02-2.05 345.82-1.85 347.27-1.75L347.27-1.75 347.27 0 334.02 0 334.02-1.75Q335.42-1.8 336.27-2.02 337.12-2.25 337.55-2.85 337.97-3.45 338.1-4.58 338.22-5.7 338.22-7.6L338.22-7.6 338.22-13.9Q338.22-19.5 336.92-21.88 335.62-24.25 332.57-24.25L332.57-24.25Q330.22-24.25 328.3-23.05 326.37-21.85 325.27-19.75L325.27-19.75Q325.02-19.2 324.85-18.73 324.67-18.25 324.57-17.65 324.47-17.05 324.45-16.28 324.42-15.5 324.42-14.35L324.42-14.35ZM372.97-6.05L374.52-4.65Q370.27 0.5 363.97 0.5L363.97 0.5Q361.02 0.5 358.62-0.48 356.22-1.45 354.49-3.23 352.77-5 351.82-7.48 350.87-9.95 350.87-12.95L350.87-12.95Q350.87-16 351.87-18.6 352.87-21.2 354.69-23.05 356.52-24.9 359.04-25.95 361.57-27 364.57-27L364.57-27Q369.42-27 372.07-24.38 374.72-21.75 374.72-16.85L374.72-16.85Q374.72-16.15 374.44-16 374.17-15.85 373.17-15.85L373.17-15.85 356.72-15.85Q356.62-15.45 356.57-14.88 356.52-14.3 356.52-13.6L356.52-13.6Q356.52-11 357.14-8.88 357.77-6.75 358.94-5.25 360.12-3.75 361.74-2.93 363.37-2.1 365.37-2.1L365.37-2.1Q367.47-2.1 369.27-3.03 371.07-3.95 372.97-6.05L372.97-6.05ZM357.07-18.15L366.27-18.15Q367.27-18.15 367.87-18.2 368.47-18.25 368.77-18.4 369.07-18.55 369.17-18.82 369.27-19.1 369.27-19.55L369.27-19.55Q369.27-21.85 367.79-23.23 366.32-24.6 363.77-24.6L363.77-24.6Q358.37-24.6 357.07-18.15L357.07-18.15ZM388.17-9.65L388.17-7.95Q388.17-5.9 388.27-4.7 388.37-3.5 388.79-2.88 389.22-2.25 390.02-2.05 390.82-1.85 392.27-1.75L392.27-1.75 392.27 0 378.97 0 378.97-1.75Q380.42-1.8 381.27-2.02 382.12-2.25 382.57-2.85 383.02-3.45 383.14-4.58 383.27-5.7 383.27-7.6L383.27-7.6 383.27-13.45Q383.27-16.85 383.19-18.75 383.12-20.65 382.69-21.55 382.27-22.45 381.37-22.63 380.47-22.8 378.87-22.8L378.87-22.8 378.87-24.55 387.62-26.45 388.32-20.25 388.52-20.25Q389.17-21.75 390.14-23 391.12-24.25 392.27-25.13 393.42-26 394.67-26.5 395.92-27 397.22-27L397.22-27Q398.82-27 399.74-26.23 400.67-25.45 400.67-24.15L400.67-24.15Q400.67-22.95 399.92-22.28 399.17-21.6 397.77-21.6L397.77-21.6Q396.97-21.6 396.42-21.8 395.87-22 395.44-22.23 395.02-22.45 394.64-22.65 394.27-22.85 393.82-22.85L393.82-22.85Q392.47-22.85 391.12-21.13 389.77-19.4 389.02-16.75L389.02-16.75Q388.62-15.3 388.39-13.48 388.17-11.65 388.17-9.65L388.17-9.65Z" opacity="1" transform="matrix(1,0,0,1,0,0)" fill="#ffffff" class="wordmark-text-0" data-fill-palette-color="quaternary" id="text-0"></path></svg></g></svg></g></svg></g></svg></g><g></g></svg></g><defs></defs></svg><rect width="356.12052" height="82.72059100514494" fill="none" stroke="none" visibility="hidden"></rect></g></svg></g></svg>